<svg width="55" height="41" viewBox="0 0 55 41" fill="none" xmlns="http://www.w3.org/2000/svg">
<path d="M54.3208 20.0337C54.3697 24.4438 53.4466 28.658 51.6329 32.6841C49.0432 38.4173 42.8345 43.1052 37.1649 38.1152C32.5411 34.0481 31.6831 25.7914 24.7555 24.5827C15.5894 23.472 15.3688 34.0972 9.38058 35.2975C2.70614 36.6533 0.492222 25.432 0.590256 20.3359C0.688289 15.2398 2.04442 8.07743 7.84472 8.07743C14.5192 8.07743 14.9685 18.1798 23.4402 17.6327C31.8302 17.061 31.9773 6.55022 37.4591 2.05028C42.189 -1.83715 47.7525 1.01309 50.5382 5.69271C53.1198 10.0212 54.2554 15.1009 54.3127 20.0337H54.3208Z" fill="black"/>
</svg>
