<svg width="236" height="59" viewBox="0 0 236 59" fill="none" xmlns="http://www.w3.org/2000/svg">
<path d="M62.4516 37.2293L71.6473 15.8115H78.0065L63.8887 46.2728L58.1647 58.6736H48.1121V53.4308H54.3631L59.2362 43.4405L47.3542 15.8115H53.7135L62.4516 37.2293Z" fill="#212121"/>
<path fill-rule="evenodd" clip-rule="evenodd" d="M96.4459 15.1752C99.2015 15.1752 101.681 15.8752 103.886 17.2742C106.133 18.6733 107.892 20.5596 109.164 22.9338C110.436 25.308 111.072 27.979 111.072 30.9467C111.072 33.9143 110.436 36.5854 109.164 38.9596C107.892 41.3336 106.133 43.2201 103.886 44.6192C101.681 45.9757 99.2014 46.6538 96.4459 46.6538C94.1565 46.6538 92.0787 46.1882 90.2133 45.2555C88.6255 44.4062 87.3117 43.2829 86.2707 41.8869V58.6736H80.5478V15.8115H86.2707V19.9625C87.3465 18.5622 88.6825 17.454 90.2776 16.6379C92.1429 15.6629 94.199 15.1752 96.4459 15.1752ZM95.5552 20.5805C93.6476 20.5805 91.9733 21.0263 90.532 21.9165C89.0905 22.7644 87.9669 23.9728 87.1613 25.5414C86.3559 27.11 85.953 28.9117 85.953 30.9467C85.953 32.9392 86.3339 34.72 87.097 36.2886C87.9025 37.8148 89.0262 39.0233 90.4676 39.9136C91.9515 40.8039 93.6265 41.2485 95.4919 41.2485C97.3997 41.2485 99.0747 40.8039 100.516 39.9136C101.958 39.0233 103.102 37.8148 103.95 36.2886C104.798 34.7201 105.222 32.9182 105.222 30.8833C105.222 28.8909 104.798 27.11 103.95 25.5414C103.102 23.9729 101.957 22.7644 100.516 21.9165C99.0747 21.0261 97.4206 20.5805 95.5552 20.5805Z" fill="#212121"/>
<path fill-rule="evenodd" clip-rule="evenodd" d="M129.262 15.1752C132.061 15.1752 134.519 15.8114 136.639 17.0832C138.801 18.3551 140.476 20.1148 141.663 22.3618C142.893 24.6087 143.507 27.1523 143.507 29.9927C143.507 30.4166 143.486 30.8833 143.444 31.392C143.401 31.8582 143.316 32.409 143.189 33.0446H119.534C119.735 34.2211 120.094 35.3026 120.613 36.2886C121.461 37.8572 122.67 39.0866 124.238 39.9769C125.807 40.8248 127.609 41.2485 129.643 41.2485C131.339 41.2485 132.887 40.9523 134.286 40.3589C135.727 39.7654 136.958 38.875 137.975 37.6879L141.663 41.4395C140.222 43.1353 138.441 44.4285 136.321 45.3188C134.244 46.2091 132.018 46.6538 129.643 46.6538C126.634 46.6537 123.92 45.9758 121.504 44.6192C119.087 43.2201 117.179 41.3337 115.78 38.9596C114.381 36.5855 113.682 33.8933 113.682 30.8833C113.682 27.9158 114.36 25.2445 115.717 22.8704C117.116 20.4964 118.981 18.6308 121.313 17.2742C123.687 15.8751 126.337 15.1752 129.262 15.1752ZM129.135 20.4538C127.185 20.4539 125.468 20.8776 123.984 21.7255C122.5 22.5734 121.355 23.7609 120.55 25.2871C120.075 26.1874 119.741 27.1837 119.546 28.2757H137.929C137.773 27.0254 137.448 25.9228 136.957 24.9684C136.236 23.5272 135.219 22.4252 133.905 21.6621C132.59 20.8566 131 20.4538 129.135 20.4538Z" fill="#212121"/>
<path fill-rule="evenodd" clip-rule="evenodd" d="M176.497 19.9625C177.573 18.5621 178.909 17.454 180.504 16.6379C182.37 15.6629 184.426 15.1752 186.672 15.1752C189.428 15.1752 191.908 15.8752 194.112 17.2742C196.359 18.6733 198.119 20.5596 199.391 22.9338C200.663 25.3079 201.299 27.979 201.299 30.9467C201.299 33.9143 200.663 36.5855 199.391 38.9596C198.119 41.3336 196.359 43.2202 194.112 44.6192C191.908 45.9757 189.428 46.6538 186.672 46.6538C184.383 46.6538 182.305 46.1882 180.44 45.2555C178.852 44.4062 177.538 43.2829 176.497 41.8869V46.0185H170.774V0.612061H176.497V19.9625ZM185.782 20.5805C183.874 20.5805 182.2 21.0262 180.758 21.9165C179.317 22.7644 178.193 23.9728 177.388 25.5414C176.582 27.11 176.18 28.9118 176.18 30.9467C176.18 32.9392 176.56 34.72 177.324 36.2886C178.129 37.8148 179.253 39.0233 180.694 39.9136C182.178 40.8039 183.853 41.2485 185.718 41.2485C187.626 41.2485 189.301 40.8039 190.743 39.9136C192.184 39.0233 193.329 37.8148 194.177 36.2886C195.025 34.72 195.448 32.9173 195.448 30.8823C195.448 28.8901 195.024 27.1098 194.177 25.5414C193.329 23.9729 192.184 22.7644 190.743 21.9165C189.301 21.0261 187.647 20.5805 185.782 20.5805Z" fill="#212121"/>
<path d="M14.5366 18.6715C16.5922 19.4232 18.839 20.321 21.4801 21.3629C27.4923 23.7346 32.822 23.4146 37.0483 22.6396V1.88371H43.0266V46.0185H37.0483V29.0111C32.3217 29.7548 26.1009 29.9322 19.1778 27.2012C17.4426 26.5167 15.9161 25.9108 14.5366 25.379V46.0185H8.55833V23.3025C5.77101 22.5107 3.29159 22.1648 0 22.1647V15.8892C3.26385 15.8893 5.93071 16.2047 8.55833 16.8207V1.88371H14.5366V18.6715Z" fill="#212121"/>
<path d="M161.768 15.1752C163.294 15.1753 164.672 15.4504 165.901 16.0015C167.131 16.5103 168.275 17.3798 169.335 18.6092L165.583 22.4884C164.947 21.8103 164.247 21.3226 163.485 21.0258C162.722 20.7291 161.831 20.5805 160.814 20.5805C158.694 20.5805 156.955 21.2594 155.598 22.6161C154.242 23.9728 153.564 26.0288 153.564 28.7844V46.0185H147.84V15.8115H153.564V19.3262C153.725 19.0798 153.893 18.8397 154.072 18.6092C155.853 16.3199 158.418 15.1752 161.768 15.1752Z" fill="#212121"/>
<path d="M211.666 46.0185H205.943V15.8105H211.666V46.0185Z" fill="#212121"/>
<path d="M228.559 15.8115H236V21.0258H228.559V40.8798H235.854V46.0185H222.836V21.0258H215.395V15.8115H222.836V3.15637H228.559V15.8115Z" fill="#212121"/>
<path d="M208.805 2.45671C209.865 2.45679 210.734 2.81682 211.412 3.53736C212.09 4.2156 212.43 5.06333 212.43 6.08065C212.43 7.14054 212.09 8.03088 211.412 8.75161C210.734 9.42987 209.865 9.76987 208.805 9.76995C207.745 9.76995 206.876 9.42995 206.198 8.75161C205.519 8.03091 205.18 7.14046 205.18 6.08065C205.18 5.06333 205.519 4.2156 206.198 3.53736C206.876 2.81662 207.745 2.45671 208.805 2.45671Z" fill="#212121"/>
</svg>
