<svg width="230" height="38" viewBox="0 0 230 38" fill="none" xmlns="http://www.w3.org/2000/svg">
<mask id="mask0_68_47" style="mask-type:luminance" maskUnits="userSpaceOnUse" x="0" y="1" width="230" height="36">
<path d="M230 1H0V37H230V1Z" fill="white"/>
</mask>
<g mask="url(#mask0_68_47)">
<path d="M40.9086 16.0778C40.9458 19.4353 40.243 22.6436 38.8622 25.7088C36.8906 30.0736 32.1638 33.6426 27.8474 29.8436C24.3272 26.7472 23.674 20.4612 18.3999 19.541C11.4215 18.6954 11.2536 26.7846 6.69462 27.6984C1.61323 28.7306 -0.0722768 20.1876 0.00235819 16.3078C0.0769932 12.428 1.10944 6.97518 5.52534 6.97518C10.6067 6.97518 10.9488 14.6664 17.3985 14.2498C23.786 13.8146 23.898 5.81248 28.0714 2.38658C31.6724 -0.573011 35.908 1.59694 38.0288 5.15964C39.9942 8.45498 40.8588 12.3223 40.9024 16.0778H40.9086Z" fill="black"/>
<path d="M60.0704 29.1288V3.16406H62.5332V14.3931H77.7214V3.16406H80.1472V29.1288H77.7214V16.4822H62.5332V29.1288H60.0704Z" fill="black"/>
<path d="M86.5747 37.001L89.9333 28.6446L82.6562 11.1855H85.1939L89.9705 23.0114C90.2443 23.7326 90.6299 24.6902 91.1275 25.884C91.2021 25.7098 91.2766 25.5172 91.3512 25.3058C91.4258 25.0944 91.5005 24.9016 91.5753 24.7276C91.7245 24.4042 91.8551 24.0996 91.9671 23.8136C92.0791 23.5276 92.1847 23.2478 92.2843 22.9742L96.7623 11.1855H99.1879L89.0003 37.001H86.5747Z" fill="black"/>
<path d="M101.656 37V11.1844H103.97V14.4673C104.567 13.3481 105.432 12.4341 106.563 11.7253C107.695 11.0165 108.958 10.6621 110.351 10.6621C112.018 10.6621 113.467 11.0663 114.699 11.8745C115.93 12.6828 116.876 13.802 117.535 15.2321C118.194 16.6621 118.524 18.2849 118.524 20.1004C118.524 21.916 118.182 23.5824 117.498 25.0248C116.813 26.4672 115.849 27.5988 114.605 28.4196C113.361 29.2404 111.943 29.6508 110.351 29.6508C109.008 29.6508 107.77 29.3274 106.638 28.6808C105.506 28.0342 104.617 27.089 103.97 25.8456V37H101.656ZM110.015 27.7854C111.234 27.7854 112.31 27.4622 113.243 26.8154C114.176 26.1688 114.892 25.2672 115.389 24.1108C115.887 22.9544 116.135 21.6176 116.135 20.1004C116.135 18.5834 115.88 17.3274 115.37 16.1834C114.86 15.0393 114.145 14.1502 113.225 13.516C112.304 12.8818 111.234 12.5647 110.015 12.5647C108.796 12.5647 107.758 12.8756 106.825 13.4973C105.892 14.1191 105.164 15.002 104.642 16.146C104.119 17.2901 103.858 18.6082 103.858 20.1004C103.858 21.5926 104.119 22.9544 104.642 24.1108C105.164 25.2672 105.886 26.1688 106.806 26.8154C107.727 27.4622 108.796 27.7854 110.015 27.7854Z" fill="black"/>
<path d="M129.571 29.6508C127.879 29.6508 126.393 29.2776 125.111 28.5316C123.83 27.7854 122.835 26.6912 122.126 25.2486C121.417 23.8062 121.062 22.0776 121.062 20.0632C121.062 18.2725 121.429 16.6621 122.163 15.2321C122.897 13.802 123.899 12.6828 125.167 11.8745C126.436 11.0663 127.854 10.6621 129.422 10.6621C131.113 10.6621 132.556 11.0476 133.75 11.8186C134.945 12.5896 135.853 13.6777 136.475 15.0828C137.097 16.488 137.408 18.1233 137.408 19.9885V20.4736H123.376C123.376 22.0154 123.637 23.3336 124.16 24.428C124.682 25.5222 125.416 26.3554 126.362 26.9274C127.307 27.4994 128.389 27.7854 129.608 27.7854C131.051 27.7854 132.252 27.4434 133.209 26.7596C134.167 26.0756 134.758 25.0496 134.982 23.6818H137.296C137.121 24.8258 136.717 25.8456 136.083 26.7408C135.448 27.6362 134.578 28.345 133.471 28.8672C132.363 29.3896 131.064 29.6508 129.571 29.6508ZM134.945 18.7201C134.92 16.8549 134.422 15.3626 133.452 14.2435C132.482 13.1243 131.138 12.5647 129.422 12.5647C127.705 12.5647 126.38 13.1429 125.298 14.2994C124.216 15.4559 123.6 16.9295 123.451 18.7201H134.945Z" fill="black"/>
<path d="M140.984 29.129V11.1849H143.298V14.7662C143.796 13.5724 144.573 12.5901 145.63 11.8191C146.688 11.0481 147.925 10.6626 149.343 10.6626C149.692 10.6626 150.028 10.6875 150.351 10.7372V12.9756C149.928 12.9258 149.555 12.9009 149.232 12.9009C148.037 12.9009 146.992 13.1683 146.097 13.703C145.201 14.2377 144.511 15.0025 144.026 15.9973C143.541 16.9921 143.298 18.1486 143.298 19.4667V29.129H140.984Z" fill="black"/>
<path d="M156.098 28.6316L155.992 29.1352H148.672L148.778 28.6316C150.799 28.414 151.626 27.8358 151.95 26.325L156.061 6.95704C156.496 4.97362 155.88 4.6503 153.791 5.07932L153.896 4.5757L158.368 3.0586H158.872L153.927 26.3186C153.604 27.8358 154.145 28.4078 156.092 28.6254L156.098 28.6316Z" fill="black"/>
<path d="M164.34 28.6316L164.235 29.1352H156.914L157.02 28.6316C159.041 28.414 159.868 27.8358 160.192 26.325L162.68 14.5301C163.115 12.5094 162.537 12.2234 160.409 12.6524L160.515 12.1488L164.987 10.6317H165.491L162.17 26.3188C161.846 27.8358 162.387 28.4078 164.334 28.6254L164.34 28.6316ZM165.566 4.10938C166.542 4.10938 167.189 4.86792 167.083 5.83788C166.94 6.81404 166.076 7.53528 165.136 7.53528C164.129 7.53528 163.438 6.81404 163.588 5.83788C163.693 4.8617 164.564 4.10938 165.572 4.10938H165.566Z" fill="black"/>
<path d="M176.95 34.3328L178.959 25.056C177.697 27.798 175.066 29.6696 172.286 29.6696C167.814 29.6696 165.718 25.4478 167.055 19.1369C167.994 14.5545 172.105 10.625 176.975 10.625C179.214 10.625 181.049 11.6323 181.808 13.112L183.506 10.625H184.01L178.934 34.3204C178.574 35.9432 179.874 36.2664 181.174 36.484L181.068 36.9876H172.665L172.771 36.484C175.19 36.2664 176.596 35.9432 176.957 34.3204L176.95 34.3328ZM173.48 28.339C175.787 28.339 178.095 26.3556 179.177 23.9742L180.695 16.8675C181.093 14.3058 179.867 11.6385 176.366 11.6385C172.864 11.6385 170.128 14.6665 169.226 19.0996C168.069 24.5462 169.692 28.3328 173.48 28.3328V28.339Z" fill="black"/>
<path d="M209.036 28.6316L208.93 29.1352H201.61L201.716 28.6316C203.736 28.414 204.564 27.8358 204.888 26.325L207.374 14.5301C207.81 12.5094 207.232 12.2234 205.104 12.6524L205.21 12.1488L209.682 10.6317H210.186L206.864 26.3188C206.542 27.8358 207.082 28.4078 209.03 28.6254L209.036 28.6316ZM210.26 4.10938C211.238 4.10938 211.884 4.86792 211.778 5.83788C211.636 6.81404 210.77 7.53528 209.832 7.53528C208.824 7.53528 208.134 6.81404 208.282 5.83788C208.388 4.8617 209.26 4.10938 210.268 4.10938H210.26Z" fill="black"/>
<path d="M198.638 26.2802L200.3 18.359L201.934 10.6367H201.432L196.959 12.1538L196.853 12.6574C198.943 12.2222 199.559 12.5144 199.124 14.5352L196.997 24.5952C194.652 26.7964 192.991 28.0958 190.97 28.0958C188.482 28.0958 187.182 26.3984 187.798 23.4824L190.541 10.6429H190.037L185.528 12.16L185.422 12.6637C187.549 12.2284 188.127 12.5207 187.729 14.5414L185.783 23.7746C185.024 27.2004 186.759 29.6874 189.968 29.6874C192.095 29.6874 193.968 28.5 196.847 25.4098L196.71 26.0626V26.0938H196.704L196.057 29.1528H200.704L200.81 28.6056C198.862 28.388 198.321 27.8098 198.645 26.2988L198.638 26.2802Z" fill="black"/>
<path d="M228.542 9.96014L229.996 3.0586H229.494L225.022 4.5757L224.916 5.07932C227.006 4.64408 227.62 4.97362 227.186 6.95704L225.924 12.8327C225.126 11.4959 223.398 10.6317 221.376 10.6317C216.47 10.6317 212.396 14.5239 211.35 19.4669C210.088 25.4544 212.146 29.67 216.656 29.67C219.468 29.67 222.142 27.7612 223.366 25.0192L223.044 26.5922L222.502 29.129L227.148 29.0918L227.254 28.5882C225.308 28.3706 224.766 27.7922 225.09 26.2814L228.536 9.96014H228.542ZM223.578 23.9374C222.496 26.356 220.188 28.3394 217.844 28.3394C214.056 28.3394 212.432 24.5528 213.514 19.4296C214.522 14.6669 217.408 11.6389 220.768 11.6389C224.35 11.6389 225.544 14.4804 225.07 17.0669L224.904 17.8503L223.584 23.9374H223.578Z" fill="black"/>
</g>
</svg>
